# xmcd
#
# Track frame offsets:
#	150
#	14251
#	33964
#	52006
#	66197
#
# Disc length: 1106 seconds
#
# Revision: 1
# Processed by: cddbd v1.5.2PL0 Copyright (c) Steve Scherf et al.
# Submitted via: audiograbber 1.83.01
#
DISCID=3b045005
DTITLE=Stony Waters - Demo 1
DYEAR=2007
DGENRE=Blues
TTITLE0=Stony Rock
TTITLE1=Never Let Me Go
TTITLE2=Backdoor Man
TTITLE3=Midtour Blues
TTITLE4=One Day Or Another
EXTD=
EXTT0=
EXTT1=
EXTT2=
EXTT3=
EXTT4=
PLAYORDER=
